<?xml version="1.0" encoding="UTF-8" standalone="no"?>
<svg
   xmlns:dc="http://purl.org/dc/elements/1.1/"
   xmlns:cc="http://creativecommons.org/ns#"
   xmlns:rdf="http://www.w3.org/1999/02/22-rdf-syntax-ns#"
   xmlns:svg="http://www.w3.org/2000/svg"
   xmlns="http://www.w3.org/2000/svg"
   xmlns:sodipodi="http://sodipodi.sourceforge.net/DTD/sodipodi-0.dtd"
   xmlns:inkscape="http://www.inkscape.org/namespaces/inkscape"
   viewBox="0 0 448 512"
   version="1.1"
   id="svg12"
   sodipodi:docname="angellist.svg"
   inkscape:version="1.0.1 (c497b03c, 2020-09-10)">
  <metadata
     id="metadata18">
    <rdf:RDF>
      <cc:Work
         rdf:about="">
        <dc:format>image/svg+xml</dc:format>
        <dc:type
           rdf:resource="http://purl.org/dc/dcmitype/StillImage" />
        <dc:title></dc:title>
      </cc:Work>
    </rdf:RDF>
  </metadata>
  <defs
     id="defs16" />
  <sodipodi:namedview
     pagecolor="#ffffff"
     bordercolor="#666666"
     borderopacity="1"
     objecttolerance="10"
     gridtolerance="10"
     guidetolerance="10"
     inkscape:pageopacity="0"
     inkscape:pageshadow="2"
     inkscape:window-width="1861"
     inkscape:window-height="1115"
     id="namedview14"
     showgrid="false"
     inkscape:zoom="0.33361714"
     inkscape:cx="657.38702"
     inkscape:cy="4.4181012"
     inkscape:window-x="0"
     inkscape:window-y="23"
     inkscape:window-maximized="0"
     inkscape:current-layer="svg12"
     inkscape:snap-text-baseline="true"
     inkscape:object-paths="true" />
  <!-- Font Awesome Free 5.15.1 by @fontawesome - https://fontawesome.com License - https://fontawesome.com/license/free (Icons: CC BY 4.0, Fonts: SIL OFL 1.1, Code: MIT License) -->
  <path
     id="path969-6"
     style="fill:#000000;stroke-width:1.47708"
     d="m 188.87363,126.69495 c -1.95821,0 -3.78696,0.18025 -5.48731,0.524 -1.70035,0.34374 -3.27348,0.85021 -4.71972,1.50427 -1.44621,0.65404 -2.76592,1.45506 -3.96177,2.38596 -1.19583,0.9309 -2.26818,1.99279 -3.21736,3.1671 -0.9492,1.17428 -1.77634,2.46152 -2.48263,3.84576 -0.7063,1.38425 -1.29046,2.86507 -1.75757,4.42581 -0.46712,1.56075 -0.81628,3.20154 -1.04798,4.90533 -0.23168,1.7038 -0.34609,3.47091 -0.34609,5.2843 0,2.22266 0.26889,4.88629 0.75215,7.88295 0.48326,2.99663 1.17965,6.32519 2.03598,9.87445 1.71265,7.09852 4.06111,15.08216 6.60489,23.06297 2.54379,7.98081 5.28319,15.95915 7.77659,23.05138 2.49342,7.0922 4.74174,13.29758 6.30327,17.73033 -1.58672,-0.57929 -3.23721,-1.12114 -4.92467,-1.51782 -1.68745,-0.39668 -3.41112,-0.64772 -5.14895,-0.64772 -1.47338,0 -2.95865,0.22765 -4.42969,0.65159 -1.47102,0.42393 -2.92789,1.04372 -4.34459,1.82331 -1.41672,0.77957 -2.7944,1.71923 -4.10487,2.7862 -1.31045,1.06696 -2.55427,2.26194 -3.70654,3.548 -1.15226,1.28605 -2.21339,2.66411 -3.1555,4.10098 -0.94211,1.43687 -1.76588,2.93152 -2.4459,4.45095 -0.68002,1.51941 -1.21562,3.06421 -1.58162,4.59789 -0.36597,1.53371 -0.56264,3.05635 -0.56264,4.53603 0,1.12079 0.15605,2.35476 0.41184,3.64082 0.25579,1.28606 0.61283,2.62353 1.01896,3.95211 0.81224,2.6571 1.8198,5.27818 2.60057,7.36862 -2.32339,0.62965 -4.46803,1.37386 -6.44247,2.23128 -1.97443,0.8574 -3.77937,1.82697 -5.42157,2.908 -1.64221,1.08103 -3.12233,2.27263 -4.44902,3.57314 -1.3267,1.30053 -2.50076,2.71077 -3.52867,4.22667 -1.02791,1.51587 -1.91081,3.13762 -2.65665,4.86472 -0.74583,1.72711 -1.3544,3.55891 -1.8349,5.49311 -0.48051,1.9342 -0.83156,3.97082 -1.06344,6.10798 -0.23188,2.13716 -0.34415,4.37523 -0.34415,6.71124 -0.003,2.27302 0.12914,4.55339 0.39057,6.83304 0.2614,2.27965 0.65186,4.55886 1.16782,6.82529 0.51599,2.26645 1.15754,4.52037 1.91806,6.75379 0.76051,2.2334 1.64034,4.44559 2.63537,6.62614 0.99506,2.18057 2.10415,4.33073 3.32373,6.4386 1.21955,2.10788 2.54895,4.17383 3.98303,6.1892 1.43408,2.01537 2.97285,3.9787 4.61145,5.88174 1.63857,1.90307 3.37775,3.74549 5.21081,5.51633 1.83308,1.77094 3.75981,3.4701 5.77734,5.08898 2.01755,1.61898 4.12479,3.15858 6.3168,4.6057 2.19202,1.44712 4.46883,2.80296 6.82531,4.05844 2.35647,1.25546 4.79389,2.40916 7.30482,3.45326 2.51091,1.04402 5.09611,1.97726 7.75146,2.79002 2.65535,0.81276 5.38124,1.50522 8.17103,2.06694 2.7898,0.5617 5.64355,0.99312 8.55775,1.28386 2.9142,0.29076 5.88876,0.44084 8.91737,0.44084 3.71493,0 7.34209,-0.17334 10.87796,-0.51428 3.53587,-0.34094 6.97909,-0.84949 10.32884,-1.51594 3.34972,-0.66634 6.6058,-1.49078 9.7623,-2.46716 3.15653,-0.9764 6.21447,-2.10496 9.17068,-3.37588 2.9562,-1.2709 5.81085,-2.68446 8.55966,-4.23444 2.74881,-1.54988 5.39114,-3.2348 7.92548,-5.0484 2.53434,-1.81352 4.95917,-3.7563 7.27196,-5.8179 2.31278,-2.06168 4.51301,-4.24296 6.59715,-6.53725 2.08413,-2.29427 4.05267,-4.70055 5.90109,-7.21202 1.8484,-2.51144 3.57814,-5.12919 5.18375,-7.84233 1.60561,-2.71315 3.0875,-5.52301 4.44322,-8.42239 1.35571,-2.89939 2.5846,-5.88784 3.68335,-8.95797 1.09874,-3.07013 2.06753,-6.22174 2.9022,-9.44717 0.83468,-3.22541 1.53433,-6.5247 2.09786,-9.88992 0.56355,-3.36524 0.99082,-6.79674 1.27612,-10.2863 0.28532,-3.48959 0.42925,-7.03589 0.42925,-10.63433 0,-2.71379 -0.0549,-5.39519 -0.19722,-8.02022 -0.14226,-2.62505 -0.37132,-5.19468 -0.72314,-7.68573 -0.35181,-2.49106 -0.82533,-4.90408 -1.45399,-7.21589 -0.62867,-2.31178 -1.41317,-4.52146 -2.38596,-6.60874 -0.97281,-2.08729 -2.13476,-4.05263 -3.51901,-5.87016 -1.38424,-1.81752 -2.99015,-3.4879 -4.85312,-4.9904 -1.86297,-1.5025 -3.9832,-2.83694 -6.39219,-3.97917 -2.40901,-1.14223 -5.10619,-2.09204 -8.1285,-2.82874 1.47336,-4.10531 3.63941,-10.15403 6.05963,-17.15415 2.4202,-7.00012 5.09298,-14.95105 7.58324,-22.86575 2.49026,-7.91469 4.79762,-15.79244 6.48115,-22.64146 0.84176,-3.42451 1.52744,-6.59269 2.00312,-9.37949 0.47569,-2.78679 0.74053,-5.19253 0.74053,-7.09405 0,-1.67488 -0.12357,-3.31587 -0.36736,-4.90534 -0.2438,-1.58947 -0.60767,-3.12731 -1.08856,-4.59596 -0.4809,-1.46865 -1.07914,-2.86784 -1.79044,-4.18026 -0.71132,-1.31243 -1.536,-2.53745 -2.47103,-3.65821 -0.93503,-1.12078 -1.98024,-2.13805 -3.1323,-3.03176 -1.15207,-0.89371 -2.40989,-1.66385 -3.77229,-2.29508 -1.3624,-0.63122 -2.82882,-1.12262 -4.39487,-1.45594 -1.56606,-0.33332 -3.2332,-0.50851 -4.99622,-0.50851 -1.40412,0 -2.79898,0.25852 -4.18219,0.74828 -1.38321,0.48973 -2.75399,1.21022 -4.11064,2.13265 -1.35665,0.92244 -2.6992,2.04692 -4.02366,3.34499 -1.32445,1.29807 -2.63065,2.77052 -3.91731,4.38714 -1.28664,1.61662 -2.55227,3.37718 -3.79548,5.25529 -1.24319,1.87814 -2.46408,3.87266 -3.65821,5.95523 -2.38825,4.16513 -4.67298,8.68334 -6.83111,13.32386 -2.15812,4.64052 -4.19023,9.40306 -6.07317,14.06246 -1.88294,4.6594 -3.61718,9.21419 -5.17988,13.43599 -3.12542,8.44361 -5.56443,15.5569 -7.13854,19.5111 -1.22153,-3.589 -3.56728,-10.81581 -6.71317,-19.63484 -1.57293,-4.40952 -3.34576,-9.21576 -5.27849,-14.16687 -1.93273,-4.9511 -4.02589,-10.04711 -6.23752,-15.02922 -2.21166,-4.98209 -4.5413,-9.85193 -6.95099,-14.3544 -2.40968,-4.50249 -4.89785,-8.63602 -7.4247,-12.14828 -1.26344,-1.75613 -2.53727,-3.35716 -3.81483,-4.76998 -1.27756,-1.41285 -2.56031,-2.63897 -3.8419,-3.64468 -1.28158,-1.00572 -2.56252,-1.79126 -3.83801,-2.32601 -1.27552,-0.53478 -2.54393,-0.8179 -3.80324,-0.8179 z m -2.89254,16.39236 c 0.41631,-0.0831 0.86333,-0.0815 1.34187,0.0232 0.47853,0.10468 0.9899,0.31103 1.53134,0.63998 0.54146,0.32897 1.11384,0.77918 1.71889,1.36893 1.21012,1.17952 2.54726,2.91786 4.01592,5.3597 1.46865,2.44187 3.0682,5.58805 4.80091,9.58445 1.73273,3.99641 3.59911,8.84189 5.6014,14.68504 l 17.42871,50.52469 c -3.92902,-0.32742 -7.41729,-0.70618 -10.40811,-0.72506 -1.49543,-0.01 -2.86523,0.0707 -4.10487,0.29196 -1.23961,0.22117 -2.34825,0.5828 -3.3179,1.1369 -1.37264,-3.62679 -3.49118,-9.20801 -5.89723,-15.76975 -2.40605,-6.56172 -5.10016,-14.10322 -7.62192,-21.64956 -2.52174,-7.54636 -4.87161,-15.09795 -6.59134,-21.67858 -0.85987,-3.29032 -1.56225,-6.33666 -2.04954,-9.01985 -0.48729,-2.68319 -0.75986,-5.00269 -0.75986,-6.83497 0,-0.74928 0.11509,-1.67006 0.34609,-2.61799 0.23101,-0.94792 0.57853,-1.92217 1.04605,-2.77653 0.46751,-0.85434 1.05381,-1.59059 1.76334,-2.05918 0.35479,-0.23432 0.73995,-0.40031 1.15625,-0.48338 z m 99.70558,5.62071 c 1.083,0 1.96785,0.27985 2.68565,0.75601 0.7178,0.47619 1.26853,1.14767 1.68409,1.9316 0.41559,0.7839 0.69767,1.67928 0.87396,2.6025 0.17631,0.92323 0.2475,1.87469 0.2475,2.7688 0,1.20262 -0.30301,3.08462 -0.84303,5.48151 -0.54002,2.3969 -1.31734,5.3078 -2.26221,8.56741 -1.88973,6.51923 -4.45402,14.4325 -7.15207,22.41331 -5.39609,15.96162 -11.32612,32.19479 -13.46694,38.08831 l -17.12708,-3.02208 16.67272,-47.19905 c 0.5037,-1.54893 1.4205,-4.3472 2.6373,-7.67411 1.2168,-3.32692 2.733,-7.18174 4.43936,-10.84317 0.85316,-1.83069 1.75394,-3.61354 2.68758,-5.25723 0.93366,-1.64367 1.90054,-3.14957 2.88673,-4.4258 0.98619,-1.27622 1.99197,-2.32276 3.00277,-3.05109 0.50538,-0.36416 1.0115,-0.64773 1.5178,-0.84109 0.5063,-0.19334 1.01216,-0.29583 1.51587,-0.29583 z m -66.38918,92.07981 c 4.06755,0 9.69896,0.25082 16.04818,0.79468 6.34924,0.54385 13.4166,1.38037 20.35219,2.54836 3.46779,0.584 6.90277,1.24998 10.1993,2.00507 3.2965,0.75508 6.45455,1.59862 9.36787,2.53482 2.91331,0.93621 5.58214,1.96626 7.90035,3.09362 2.31818,1.12739 4.28552,2.35286 5.79666,3.68144 0.56984,0.50686 1.115,1.17248 1.6319,1.98378 0.51691,0.81128 1.0061,1.76877 1.45786,2.85579 0.90355,2.17407 1.66339,4.87079 2.23322,7.97576 0.56983,3.10495 0.94811,6.61714 1.08663,10.42357 0.13853,3.80644 0.0385,7.90656 -0.35191,12.18502 -0.39038,4.27846 -1.07129,8.7351 -2.08819,13.25618 -0.50844,2.26055 -1.10126,4.53747 -1.78463,6.81565 -0.68336,2.27816 -1.45554,4.55817 -2.32601,6.82531 -0.8705,2.26712 -1.8382,4.52055 -2.908,6.74797 -1.06983,2.2274 -2.24348,4.42847 -3.52481,6.58747 -1.28133,2.15901 -2.67133,4.27615 -4.17639,6.33807 -1.50506,2.06192 -3.12375,4.06932 -4.86472,6.0055 -1.83229,2.01488 -3.72857,3.90744 -5.68648,5.67873 -1.95792,1.77129 -3.97788,3.4206 -6.0577,4.94594 -2.07981,1.52531 -4.21937,2.92641 -6.41735,4.20345 -2.19796,1.27706 -4.45489,2.43086 -6.76729,3.45714 -2.31238,1.0263 -4.68066,1.92588 -7.10375,2.69922 -2.42306,0.77326 -4.90047,1.41942 -7.43049,1.93736 -2.53001,0.51784 -5.11244,0.9077 -7.74566,1.16786 -2.6332,0.26006 -5.31655,0.39054 -8.04922,0.39054 -3.74011,0 -7.38295,-0.25601 -10.91469,-0.7599 -3.53175,-0.50379 -6.95328,-1.25586 -10.25344,-2.24484 -3.30015,-0.98886 -6.47915,-2.21632 -9.5245,-3.67166 -3.04532,-1.45544 -5.9567,-3.13758 -8.72402,-5.04072 -2.76729,-1.9031 -5.38979,-4.02715 -7.85587,-6.35933 -2.46605,-2.33215 -4.77652,-4.87358 -6.91812,-7.61612 -2.14159,-2.74251 -4.1149,-5.68457 -5.90881,-8.81876 -1.79392,-3.13417 -3.40692,-6.46012 -4.82992,-9.96726 -1.0767,-2.73267 -1.85441,-5.32016 -2.37436,-7.75532 -0.51995,-2.43519 -0.78344,-4.71765 -0.82947,-6.84271 -0.0461,-2.12508 0.1248,-4.09293 0.46983,-5.8953 0.34503,-1.80237 0.86455,-3.44017 1.51782,-4.90725 0.65325,-1.4671 1.43963,-2.7633 2.31828,-3.88252 0.87865,-1.11919 1.85006,-2.06033 2.87127,-2.81905 1.02121,-0.75873 2.09196,-1.33517 3.1729,-1.72082 1.08093,-0.38568 2.17116,-0.58199 3.22898,-0.58199 0.7178,0 1.68439,0.47552 2.82485,1.31865 1.14046,0.84313 2.45613,2.05449 3.87283,3.52867 2.83342,2.94832 6.0719,6.94695 9.13199,11.1467 3.06011,4.19976 5.94133,8.60089 8.05697,12.35517 1.0578,1.87714 1.92499,3.59308 2.5271,5.04068 0.6021,1.44761 0.93969,2.62603 0.93969,3.43198 0,0.61705 -0.24295,1.18804 -0.63807,1.69569 -0.39509,0.50766 -0.94377,0.95224 -1.55455,1.3206 -0.61075,0.36834 -1.2846,0.65934 -1.93157,0.85847 -0.64697,0.19913 -1.26544,0.30743 -1.76917,0.30743 -1.01374,0 -1.95111,-0.12241 -2.84227,-0.37122 -0.89115,-0.24882 -1.73771,-0.62386 -2.56963,-1.13112 -0.83194,-0.50725 -1.64853,-1.14655 -2.48458,-1.92191 -0.83606,-0.77536 -1.69123,-1.68671 -2.59478,-2.7398 -3.61418,-4.21235 -8.02125,-10.68588 -15.24963,-19.72765 -0.93502,0.93503 -1.71341,1.92352 -2.34534,2.95635 -0.63196,1.03283 -1.1179,2.10949 -1.46948,3.21929 -0.35158,1.10982 -0.56736,2.25445 -0.66127,3.4204 -0.0938,1.16595 -0.0657,2.35448 0.0754,3.55574 0.14108,1.20125 0.39493,2.41347 0.74828,3.62919 0.35334,1.21574 0.80665,2.43533 1.34959,3.64468 1.08585,2.41875 2.52841,4.80256 4.23633,7.07088 1.70793,2.2683 3.68116,4.41969 5.82955,6.37093 2.14838,1.95121 4.47222,3.70273 6.87944,5.17021 2.40722,1.46748 4.89771,2.65165 7.38217,3.46873 1.24223,0.40854 2.48294,0.725 3.71041,0.9397 1.22749,0.21468 2.4411,0.32676 3.63115,0.32676 1.64337,0 3.21494,-0.19055 4.7023,-0.5414 1.48735,-0.35083 2.89,-0.86088 4.19574,-1.50234 1.30572,-0.64144 2.51519,-1.41354 3.61373,-2.28541 1.09854,-0.87187 2.08671,-1.84466 2.95248,-2.88674 0.86577,-1.04207 1.60839,-2.15425 2.2158,-3.3063 0.60742,-1.15207 1.08025,-2.34424 1.40373,-3.54607 0.32349,-1.20185 0.49843,-2.41267 0.51238,-3.60407 0.0139,-1.19141 -0.13325,-2.36342 -0.45436,-3.48421 0.93187,0 1.97642,0.0382 3.00274,0.0193 1.02634,-0.0189 2.03429,-0.0942 2.8906,-0.32097 0.13853,3.41271 0.49424,6.98951 1.20653,10.45259 0.35614,1.73154 0.80162,3.43524 1.35345,5.07547 0.55182,1.64023 1.21112,3.21684 1.99345,4.6965 0.78235,1.47969 1.68825,2.86082 2.73593,4.11067 1.04769,1.24985 2.2369,2.36908 3.58474,3.31983 1.34785,0.95078 2.85318,1.73393 4.53603,2.31637 1.68283,0.58237 3.54293,0.96311 5.59558,1.10795 0,-0.4534 1.00737,-3.57676 1.00737,-3.72788 0,-2.19116 -0.33471,-4.31221 -0.83528,-6.40186 -0.50057,-2.08966 -1.16748,-4.14642 -1.8349,-6.20852 -0.66743,-2.06209 -1.33434,-4.12898 -1.83491,-6.23752 -0.50057,-2.10854 -0.83527,-4.25992 -0.83527,-6.48887 0,-1.78192 0.17057,-3.55589 0.49111,-5.31331 0.32052,-1.75741 0.79123,-3.49857 1.3902,-5.21083 0.59895,-1.71224 1.32639,-3.39615 2.16165,-5.04259 0.83528,-1.64644 1.778,-3.2545 2.80748,-4.81446 1.02948,-1.55996 2.14599,-3.0716 3.32757,-4.52443 1.18158,-1.45281 2.42852,-2.84751 3.72009,-4.17253 2.58314,-2.65003 5.34451,-5.02312 8.11497,-7.03799 2.01487,-1.51114 4.2433,-2.73187 6.56041,-3.78969 2.31711,-1.05781 4.72272,-1.95308 7.0902,-2.80939 2.44305,-0.93189 4.96197,-1.93828 7.33577,-3.17869 1.18688,-0.62022 2.3373,-1.29898 3.42424,-2.05534 1.08694,-0.75637 2.10953,-1.59135 3.04143,-2.52324 -0.13853,-1.4104 -0.38624,-2.78017 -0.76955,-4.04103 -0.3833,-1.26088 -0.90087,-2.41352 -1.57775,-3.38947 -0.67688,-0.97596 -1.51365,-1.77422 -2.53289,-2.32988 -1.01926,-0.55566 -2.22073,-0.86815 -3.63115,-0.86815 -3.48826,0 -9.02996,0.12605 -15.37918,-0.029 -3.17461,-0.0775 -6.55178,-0.22611 -9.97501,-0.49498 -3.42322,-0.26889 -6.89268,-0.65808 -10.25342,-1.22005 -3.36076,-0.56197 -6.61272,-1.29577 -9.59991,-2.25254 -1.4936,-0.4784 -2.92153,-1.01253 -4.2634,-1.60868 -1.34189,-0.59617 -2.59782,-1.25521 -3.74909,-1.98185 -1.15127,-0.72667 -2.19697,-1.51998 -3.11877,-2.38985 -0.92177,-0.86984 -1.71901,-1.81453 -2.37242,-2.84032 -0.6534,-1.02579 -1.16391,-2.13315 -1.51007,-3.32758 -0.34614,-1.19443 -0.52784,-2.47771 -0.52784,-3.8535 0,-0.84373 0.002,-1.67679 0.14307,-2.45362 0.14089,-0.77685 0.41967,-1.49556 0.97063,-2.10948 0.55095,-0.61389 1.37426,-1.12417 2.60443,-1.47914 1.2302,-0.35496 2.8679,-0.55491 5.04648,-0.55491 z m -38.78631,8.8149 c 0.92243,0 1.86114,0.18499 2.81133,0.53558 0.95019,0.35058 1.91244,0.86582 2.879,1.5236 0.96656,0.6578 1.9384,1.45857 2.90995,2.38016 0.97154,0.9216 1.94286,1.96514 2.908,3.10717 1.93027,2.28406 3.83468,4.9659 5.671,7.87133 1.83632,2.90545 3.60405,6.03348 5.25529,9.2132 1.65126,3.17974 3.18608,6.40984 4.56116,9.51676 1.37511,3.10694 2.59046,6.09113 3.59829,8.77817 1.00783,2.68702 1.80941,5.07735 2.35887,6.99738 0.54948,1.92005 0.84689,3.37044 0.84689,4.17641 0,0.64223 -0.15491,1.32115 -0.43117,1.97992 -0.27626,0.65876 -0.67408,1.29699 -1.16204,1.85423 -0.48799,0.55725 -1.06633,1.03321 -1.70149,1.37086 -0.63516,0.33766 -1.32787,0.53753 -2.04567,0.53753 -0.65798,0 -1.3845,-0.15265 -2.16941,-0.43892 -0.78491,-0.28627 -1.628,-0.70728 -2.51742,-1.24711 -1.77886,-1.07966 -3.74387,-2.63262 -5.80636,-4.53023 -2.06249,-1.89761 -4.22145,-4.13942 -6.38832,-6.59329 -2.16688,-2.45385 -4.34274,-5.12099 -6.43474,-7.8694 -2.09201,-2.74842 -4.10188,-5.57925 -5.93976,-8.36053 -1.83789,-2.78127 -3.50276,-5.51224 -4.90728,-8.06469 -1.40449,-2.55245 -2.54729,-4.92582 -3.33916,-6.98771 -0.7919,-2.06192 -1.2336,-3.81222 -1.2336,-5.12189 0.0125,-0.96966 0.42007,-2.11842 1.08277,-3.29664 0.66271,-1.17824 1.58099,-2.38645 2.61993,-3.47259 1.03892,-1.08616 2.19793,-2.05027 3.33916,-2.74367 1.14126,-0.69339 2.26513,-1.11563 3.23478,-1.11563 z m 43.16767,30.37358 c 2.44304,0.78077 4.92498,1.28444 7.42468,1.7189 2.49972,0.43446 5.01826,0.79947 7.53684,1.3032 -1.86374,1.36004 -3.62726,2.87142 -5.32102,4.48961 -1.69375,1.61819 -3.31861,3.34336 -4.90533,5.13156 -1.41041,-4.28162 -3.12328,-8.46239 -4.73517,-12.64327 z M 50.408548,30.522245 c -26.294836,0 -47.463938,21.169102 -47.463938,47.463928 V 426.18129 c 0,26.29482 21.169102,47.46204 47.463938,47.46204 H 398.6037 c 26.29483,0 47.46393,-21.16722 47.46393,-47.46204 V 77.986173 c 0,-26.294826 -21.1691,-47.463928 -47.46393,-47.463928 z M 227.60554,88.771321 A 166.41117,165.79127 0 0 1 394.01741,254.56253 166.41117,165.79127 0 0 1 227.60554,420.35371 166.41117,165.79127 0 0 1 61.193696,254.56253 166.41117,165.79127 0 0 1 227.60554,88.771321 Z" />
</svg>
