<svg version="1.1" viewBox="0.0 0.0 200.0 100.0" fill="none" stroke="none" stroke-linecap="square" stroke-miterlimit="10" xmlns:xlink="http://www.w3.org/1999/xlink" xmlns="http://www.w3.org/2000/svg"><clipPath id="p.0"><path d="m0 0l200.0 0l0 100.0l-200.0 0l0 -100.0z" clip-rule="nonzero"/></clipPath><g clip-path="url(#p.0)"><path fill="#000000" fill-opacity="0.0" d="m0 0l200.0 0l0 100.0l-200.0 0z" fill-rule="evenodd"/><defs><linearGradient id="p.1" gradientUnits="userSpaceOnUse" gradientTransform="matrix(2.8171774627463195 -5.552067825341424 5.552067825341424 2.8171774627463195 0.0 0.0)" spreadMethod="pad" x1="-2.963062423355873" y1="12.646805105255162" x2="0.9628923028715379" y2="8.720950214304132"><stop offset="0.0" stop-color="#03dac5"/><stop offset="0.99999994" stop-color="#134f5c"/><stop offset="1.0" stop-color="#737373"/></linearGradient></defs><path fill="url(#p.1)" d="m34.54171 51.917614l0 0c-6.019045 -3.0541267 -8.422585 -10.409386 -5.368458 -16.428429q2.4936085 -4.914383 6.0569 -9.2859955q5.4571495 1.4239254 10.371529 3.9175358l0 0c6.019047 3.0541248 8.422588 10.409384 5.3684616 16.42843l0 0c-3.0541267 6.019043 -10.409386 8.422585 -16.428432 5.368458z" fill-rule="evenodd"/><defs><linearGradient id="p.2" gradientUnits="userSpaceOnUse" gradientTransform="matrix(5.471273002628668 -3.158542495600378 3.158542495600378 5.471273002628668 0.0 0.0)" spreadMethod="pad" x1="2.246804624525208" y1="12.663086364074486" x2="6.115628161203843" y2="8.794361417618001"><stop offset="0.0" stop-color="#03dac5"/><stop offset="0.99999994" stop-color="#134f5c"/><stop offset="1.0" stop-color="#737373"/></linearGradient></defs><path fill="url(#p.2)" d="m29.4868 47.129143l0 0c-3.3743744 -5.8451385 -1.3714237 -13.319031 4.473715 -16.693405q4.7723923 -2.7550812 10.144466 -4.471388q3.7938576 4.1727123 6.5489388 8.945105l0 0c3.3743744 5.8451385 1.3714256 13.319031 -4.4737167 16.693405l0 0c-5.8451385 3.3743744 -13.319031 1.3714218 -16.693403 -4.4737167z" fill-rule="evenodd"/><defs><linearGradient id="p.3" gradientUnits="userSpaceOnUse" gradientTransform="matrix(-5.734117562486427 1.8737869806494016 -1.8737869806494016 -5.734117562486427 0.0 0.0)" spreadMethod="pad" x1="-0.6857647695480614" y1="-7.467180582501465" x2="3.368920187204153" y2="-11.521762450204047"><stop offset="0.0" stop-color="#03dac5"/><stop offset="0.99999994" stop-color="#134f5c"/><stop offset="1.0" stop-color="#737373"/></linearGradient></defs><path fill="url(#p.3)" d="m37.14626 60.9838l0 0c2.0979958 6.4202385 -1.4058723 13.325634 -7.8261127 15.423634q-5.2419453 1.7129517 -10.856739 2.2849274q-2.8539371 -4.869095 -4.5668926 -10.111046l0 0c-2.0979967 -6.4202385 1.4058733 -13.32563 7.8261127 -15.42363l0 0c6.4202385 -2.0979958 13.325636 1.4058723 15.423632 7.8261147z" fill-rule="evenodd"/><defs><linearGradient id="p.4" gradientUnits="userSpaceOnUse" gradientTransform="matrix(-5.780175401184984 -1.5490467888573645 1.5490467888573645 -5.780175401184984 0.0 0.0)" spreadMethod="pad" x1="-6.922051417701339" y1="-5.265613349226085" x2="-2.834798153962291" y2="-9.352762530075553"><stop offset="0.0" stop-color="#03dac5"/><stop offset="0.99999994" stop-color="#134f5c"/><stop offset="1.0" stop-color="#737373"/></linearGradient></defs><path fill="url(#p.4)" d="m37.334793 67.94904l0 0c-1.7483292 6.523796 -8.45421 10.395073 -14.978003 8.646736q-5.3264923 -1.4274597 -10.342279 -4.014305q0.26807976 -5.6371994 1.6955423 -10.963696l0 0c1.7483311 -6.5237923 8.454211 -10.395065 14.9780035 -8.646736l0 0c6.5237923 1.7483292 10.395069 8.454212 8.646736 14.978001z" fill-rule="evenodd"/><defs><linearGradient id="p.5" gradientUnits="userSpaceOnUse" gradientTransform="matrix(1.640746287813974 5.76700763472209 -5.76700763472209 1.640746287813974 0.0 0.0)" spreadMethod="pad" x1="12.855408548082705" y1="-1.6280334596017114" x2="16.93335026562384" y2="-5.705872152743034"><stop offset="0.0" stop-color="#03dac5"/><stop offset="0.99999994" stop-color="#134f5c"/><stop offset="1.0" stop-color="#737373"/></linearGradient></defs><path fill="url(#p.5)" d="m50.653267 53.016945l0 0c6.4941025 -1.8476067 13.256397 1.9191208 15.104004 8.413223q1.508522 5.3022537 1.8629379 10.932861q-4.9739037 2.6626282 -10.276157 4.17115l0 0c-6.4941025 1.8476028 -13.256397 -1.9191208 -15.104008 -8.413223l0 0c-1.8476105 -6.4941063 1.919117 -13.256401 8.413223 -15.104012z" fill-rule="evenodd"/><defs><linearGradient id="p.6" gradientUnits="userSpaceOnUse" gradientTransform="matrix(-1.780868041168293 5.746920129280622 -5.746920129280622 -1.780868041168293 0.0 0.0)" spreadMethod="pad" x1="7.626991402685297" y1="-7.696057653885567" x2="11.690729145047152" y2="-11.75969229957341"><stop offset="0.0" stop-color="#03dac5"/><stop offset="0.99999994" stop-color="#134f5c"/><stop offset="1.0" stop-color="#737373"/></linearGradient></defs><path fill="url(#p.6)" d="m57.617996 53.097717l0 0c6.448944 1.9984131 10.056808 8.846344 8.058395 15.295288q-1.6316452 5.265381 -4.409374 10.175606q-5.620529 -0.4855652 -10.88591 -2.1172104l0 0c-6.4489403 -1.9984131 -10.056808 -8.846344 -8.058395 -15.295288l0 0c1.9984093 -6.4489403 8.846344 -10.056808 15.295284 -8.058395z" fill-rule="evenodd"/><path fill="#000000" fill-opacity="0.0" d="m60.703056 20.32227l129.19983 0l0 59.32205l-129.19983 0z" fill-rule="evenodd"/><path fill="#000000" d="m83.02181 62.123917q-2.421875 0 -4.359375 -1.21875q-1.9375 -1.21875 -3.0625 -3.296875q-1.109375 -2.09375 -1.109375 -4.71875q0 -2.640625 1.21875 -4.734375q1.21875 -2.109375 3.296875 -3.3125q2.09375 -1.21875 4.6875 -1.21875q2.59375 0 4.65625 1.21875q2.078125 1.203125 3.296875 3.3125q1.21875 2.09375 1.21875 4.734375l-1.3125 0q0 2.625 -1.125 4.71875q-1.109375 2.078125 -3.046875 3.296875q-1.921875 1.21875 -4.359375 1.21875zm0.671875 -3.0q1.703125 0 3.03125 -0.8125q1.328125 -0.828125 2.09375 -2.234375q0.765625 -1.421875 0.765625 -3.1875q0 -1.796875 -0.765625 -3.21875q-0.765625 -1.421875 -2.09375 -2.234375q-1.328125 -0.8125 -3.03125 -0.8125q-1.671875 0 -3.015625 0.8125q-1.34375 0.8125 -2.140625 2.234375q-0.78125 1.421875 -0.78125 3.21875q0 1.765625 0.78125 3.1875q0.796875 1.40625 2.140625 2.234375q1.34375 0.8125 3.015625 0.8125zm7.46875 2.890625q-0.734375 0 -1.21875 -0.484375q-0.484375 -0.484375 -0.484375 -1.21875l0 -5.09375l0.625 -3.53125l2.78125 1.203125l0 7.421875q0 0.734375 -0.484375 1.21875q-0.484375 0.484375 -1.21875 0.484375z" fill-rule="nonzero"/><path fill="#02a091" d="m99.65888 61.342667l-2.265625 -2.0l11.328125 -14.953125l2.234375 2.0l-11.296875 14.953125zm-1.0 0.640625q-1.5625 0 -1.5625 -1.5625q0 -1.578125 1.5625 -1.578125l11.359375 0q1.5625 0 1.5625 1.578125q0 1.5625 -1.5625 1.5625l-11.359375 0zm-0.328125 -15.09375q-1.578125 0 -1.578125 -1.5625q0 -1.578125 1.578125 -1.578125l11.359375 0q1.5625 0 1.5625 1.578125q0 1.5625 -1.5625 1.5625l-11.359375 0zm25.486725 15.234375q-2.765625 0 -4.921875 -1.1875q-2.140625 -1.1875 -3.359375 -3.265625q-1.21875 -2.09375 -1.21875 -4.78125q0 -2.734375 1.140625 -4.8125q1.15625 -2.09375 3.1875 -3.265625q2.046875 -1.1875 4.671875 -1.1875q2.609375 0 4.46875 1.15625q1.8593826 1.140625 2.8437576 3.15625q0.984375 2.015625 0.984375 4.640625q0 0.640625 -0.4375 1.0625q-0.421875 0.40625 -1.09375 0.40625l-13.421883 0l0 -2.65625l13.328133 0l-1.375 0.921875q-0.03125 -1.65625 -0.6718826 -2.96875q-0.625 -1.328125 -1.796875 -2.09375q-1.15625 -0.765625 -2.828125 -0.765625q-1.890625 0 -3.25 0.84375q-1.34375 0.828125 -2.046875 2.28125q-0.703125 1.4375 -0.703125 3.28125q0 1.828125 0.828125 3.265625q0.84375 1.421875 2.3125 2.265625q1.46875 0.828125 3.359375 0.828125q1.03125 0 2.109375 -0.375q1.09375 -0.390625 1.765625 -0.890625q0.5000076 -0.359375 1.0781326 -0.375q0.578125 -0.03125 1.015625 0.34375q0.5625 0.5 0.59375 1.109375q0.03125 0.59375 -0.53125 1.015625q-1.125 0.90625 -2.8125076 1.484375q-1.6875 0.5625 -3.21875 0.5625zm27.524849 -0.109375q-0.734375 0 -1.21875 -0.484375q-0.46875 -0.484375 -0.46875 -1.21875l0 -8.1875q0 -1.90625 -0.703125 -3.109375q-0.703125 -1.203125 -1.890625 -1.78125q-1.171875 -0.578125 -2.71875 -0.578125q-1.390625 0 -2.53125 0.5625q-1.125 0.5625 -1.796875 1.515625q-0.65625 0.953125 -0.65625 2.1875l-2.109375 0q0 -2.109375 1.015625 -3.75q1.015625 -1.65625 2.78125 -2.609375q1.765625 -0.96875 3.96875 -0.96875q2.296875 0 4.109375 0.984375q1.828125 0.96875 2.875 2.875q1.046875 1.90625 1.046875 4.671875l0 8.1875q0 0.734375 -0.484375 1.21875q-0.484375 0.484375 -1.21875 0.484375zm-13.6875 0q-0.734375 0 -1.21875 -0.484375q-0.484375 -0.484375 -0.484375 -1.21875l0 -14.859375q0 -0.765625 0.484375 -1.234375q0.484375 -0.46875 1.21875 -0.46875q0.765625 0 1.234375 0.46875q0.46875 0.46875 0.46875 1.234375l0 14.859375q0 0.734375 -0.46875 1.21875q-0.46875 0.484375 -1.234375 0.484375z" fill-rule="nonzero"/><path fill="#000000" d="m166.27519 62.123917q-2.421875 0 -4.359375 -1.21875q-1.9375 -1.21875 -3.0625 -3.296875q-1.109375 -2.09375 -1.109375 -4.71875q0 -2.640625 1.21875 -4.734375q1.21875 -2.109375 3.296875 -3.3125q2.09375 -1.21875 4.6875 -1.21875q2.59375 0 4.65625 1.21875q2.078125 1.203125 3.296875 3.3125q1.21875 2.09375 1.21875 4.734375l-1.3125 0q0 2.625 -1.125 4.71875q-1.109375 2.078125 -3.046875 3.296875q-1.921875 1.21875 -4.359375 1.21875zm0.671875 -3.0q1.703125 0 3.03125 -0.8125q1.328125 -0.828125 2.09375 -2.234375q0.765625 -1.421875 0.765625 -3.1875q0 -1.796875 -0.765625 -3.21875q-0.765625 -1.421875 -2.09375 -2.234375q-1.328125 -0.8125 -3.03125 -0.8125q-1.671875 0 -3.015625 0.8125q-1.34375 0.8125 -2.140625 2.234375q-0.78125 1.421875 -0.78125 3.21875q0 1.765625 0.78125 3.1875q0.796875 1.40625 2.140625 2.234375q1.34375 0.8125 3.015625 0.8125zm7.46875 2.890625q-0.734375 0 -1.21875 -0.484375q-0.484375 -0.484375 -0.484375 -1.21875l0 -5.09375l0.625 -3.53125l2.78125 1.203125l0 7.421875q0 0.734375 -0.484375 1.21875q-0.484375 0.484375 -1.21875 0.484375z" fill-rule="nonzero"/></g></svg>