<svg version="1.1" viewBox="0.0 0.0 400.0 200.0" fill="none" stroke="none" stroke-linecap="square" stroke-miterlimit="10" xmlns:xlink="http://www.w3.org/1999/xlink" xmlns="http://www.w3.org/2000/svg"><clipPath id="p.0"><path d="m0 0l400.0 0l0 200.0l-400.0 0l0 -200.0z" clip-rule="nonzero"/></clipPath><g clip-path="url(#p.0)"><path fill="#000000" fill-opacity="0.0" d="m0 0l400.0 0l0 200.0l-400.0 0z" fill-rule="evenodd"/><defs><linearGradient id="p.1" gradientUnits="userSpaceOnUse" gradientTransform="matrix(4.169137855832331 -8.216499122052968 8.216499122052968 4.169137855832331 0.0 0.0)" spreadMethod="pad" x1="-4.3987545463346525" y1="16.409165597344575" x2="1.4112613506003895" y2="10.599297001579325"><stop offset="0.0" stop-color="#03dac5"/><stop offset="0.99999994" stop-color="#134f5c"/><stop offset="1.0" stop-color="#737373"/></linearGradient></defs><path fill="url(#p.1)" d="m56.638577 104.20007l0 0c-13.182316 -6.688843 -18.446316 -22.7976 -11.757469 -35.97992q5.461254 -10.762989 13.265221 -20.337261q11.95171 3.1185417 22.714695 8.579796l0 0c13.18232 6.6888466 18.446312 22.797604 11.757469 35.979916l0 0c-6.688843 13.18232 -22.7976 18.446312 -35.979916 11.757469z" fill-rule="evenodd"/><defs><linearGradient id="p.2" gradientUnits="userSpaceOnUse" gradientTransform="matrix(8.096931376591764 -4.674323841117515 4.674323841117515 8.096931376591764 0.0 0.0)" spreadMethod="pad" x1="2.072268091396692" y1="16.842996693694285" x2="7.797735825088441" y2="11.117674261927595"><stop offset="0.0" stop-color="#03dac5"/><stop offset="0.99999994" stop-color="#134f5c"/><stop offset="1.0" stop-color="#737373"/></linearGradient></defs><path fill="url(#p.2)" d="m45.567806 93.71284l0 0c-7.390217 -12.801445 -3.0035515 -29.170021 9.79789 -36.560238q10.452023 -6.033909 22.217403 -9.792789q8.308929 9.138657 14.342834 19.590675l0 0c7.3902206 12.801445 3.0035553 29.170021 -9.79789 36.56024l0 0c-12.801437 7.3902206 -29.170017 3.0035553 -36.560238 -9.79789z" fill-rule="evenodd"/><defs><linearGradient id="p.3" gradientUnits="userSpaceOnUse" gradientTransform="matrix(-8.485914343414057 2.7730153145053342 -2.7730153145053342 -8.485914343414057 0.0 0.0)" spreadMethod="pad" x1="0.6786186052322241" y1="-9.377219207983769" x2="6.679142372767583" y2="-15.377590593073501"><stop offset="0.0" stop-color="#03dac5"/><stop offset="0.99999994" stop-color="#134f5c"/><stop offset="1.0" stop-color="#737373"/></linearGradient></defs><path fill="url(#p.3)" d="m62.342796 124.05593l0 0c4.5948257 14.0609665 -3.0790024 29.184486 -17.139973 33.779305q-11.480389 3.7515411 -23.777353 5.0042267q-6.25041 -10.663818 -10.001955 -22.144196l0 0c-4.594825 -14.060982 3.0790033 -29.184486 17.139975 -33.779312l0 0c14.060972 -4.5948257 29.18448 3.0790024 33.779305 17.139977z" fill-rule="evenodd"/><defs><linearGradient id="p.4" gradientUnits="userSpaceOnUse" gradientTransform="matrix(-8.55407522788347 -2.292432641630818 2.292432641630818 -8.55407522788347 0.0 0.0)" spreadMethod="pad" x1="-7.892557965640567" y1="-7.3115942934673885" x2="-1.843836088357308" y2="-13.360161616029362"><stop offset="0.0" stop-color="#03dac5"/><stop offset="0.99999994" stop-color="#134f5c"/><stop offset="1.0" stop-color="#737373"/></linearGradient></defs><path fill="url(#p.4)" d="m62.755707 139.31052l0 0c-3.8290215 14.2877655 -18.515575 22.76625 -32.803337 18.937225q-11.665556 -3.1262817 -22.650633 -8.791733q0.58712006 -12.346039 3.713408 -24.011597l0 0c3.8290205 -14.2877655 18.515574 -22.766243 32.803337 -18.937225l0 0c14.287762 3.8290176 22.766243 18.515572 18.937225 32.80333z" fill-rule="evenodd"/><defs><linearGradient id="p.5" gradientUnits="userSpaceOnUse" gradientTransform="matrix(2.4281389214039804 8.534589291360458 -8.534589291360458 2.4281389214039804 0.0 0.0)" spreadMethod="pad" x1="17.408129331758513" y1="-0.6416953770115693" x2="23.443072889473353" y2="-6.676483743425159"><stop offset="0.0" stop-color="#03dac5"/><stop offset="0.99999994" stop-color="#134f5c"/><stop offset="1.0" stop-color="#737373"/></linearGradient></defs><path fill="url(#p.5)" d="m91.9245 106.60772l0 0c14.222748 -4.0464478 29.032852 4.203064 33.0793 18.425804q3.3038177 11.612473 4.080017 23.944061q-10.893349 5.831421 -22.505821 9.135239l0 0c-14.22274 4.0464478 -29.032845 -4.203064 -33.0793 -18.425812l0 0c-4.0464478 -14.222733 4.203064 -29.032845 18.425804 -33.079292z" fill-rule="evenodd"/><defs><linearGradient id="p.6" gradientUnits="userSpaceOnUse" gradientTransform="matrix(-2.635504711833328 8.50486096134506 -8.50486096134506 -2.635504711833328 0.0 0.0)" spreadMethod="pad" x1="10.899527348465744" y1="-9.033921244248651" x2="16.913448204625617" y2="-15.047690104760047"><stop offset="0.0" stop-color="#03dac5"/><stop offset="0.99999994" stop-color="#134f5c"/><stop offset="1.0" stop-color="#737373"/></linearGradient></defs><path fill="url(#p.6)" d="m107.17797 106.784615l0 0c14.123825 4.3767242 22.025414 19.37439 17.648697 33.498222q-3.573471 11.531708 -9.656975 22.285614q-12.309532 -1.063446 -23.84124 -4.636917l0 0c-14.123833 -4.3767242 -22.025429 -19.37439 -17.648705 -33.498215l0 0c4.3767242 -14.123833 19.37439 -22.025429 33.498222 -17.648705z" fill-rule="evenodd"/><path fill="#000000" fill-opacity="0.0" d="m113.93456 35.003082l282.96063 0l0 129.92126l-282.96063 0z" fill-rule="evenodd"/><path fill="#000000" d="m153.9325 129.07622q-5.84375 0 -10.484375 -2.9062576q-4.640625 -2.921875 -7.328125 -7.921875q-2.671875 -5.0 -2.671875 -11.328125q0 -6.3125 2.921875 -11.34375q2.921875 -5.046875 7.921875 -7.96875q5.0 -2.921875 11.25 -2.921875q6.234375 0 11.1875 2.921875q4.96875 2.921875 7.890625 7.96875q2.921875 5.03125 2.921875 11.34375l-3.125 0q0 6.328125 -2.6875 11.328125q-2.671875 5.0 -7.3125 7.921875q-4.640625 2.9062576 -10.484375 2.9062576zm1.609375 -7.1875076q4.078125 0 7.265625 -1.953125q3.203125 -1.96875 5.046875 -5.359375q1.84375 -3.40625 1.84375 -7.65625q0 -4.3125 -1.84375 -7.703125q-1.84375 -3.40625 -5.046875 -5.359375q-3.1875 -1.96875 -7.265625 -1.96875q-4.0 0 -7.25 1.96875q-3.234375 1.953125 -5.125 5.359375q-1.875 3.390625 -1.875 7.703125q0 4.25 1.875 7.65625q1.890625 3.390625 5.125 5.359375q3.25 1.953125 7.25 1.953125zm17.90625 6.9531326q-1.75 0 -2.921875 -1.1562576q-1.15625 -1.15625 -1.15625 -2.921875l0 -12.234375l1.53125 -8.484375l6.640625 2.875l0 17.84375q0 1.765625 -1.171875 2.921875q-1.15625 1.1562576 -2.921875 1.1562576zm20.406204 -1.5937576l-5.4375 -4.796875l27.203125 -35.921875l5.359375 4.796875l-27.125 35.921875zm-2.40625 1.5156326q-3.75 0 -3.75 -3.7656326q0 -3.75 3.75 -3.75l27.28125 0q3.765625 0 3.765625 3.75q0 3.7656326 -3.765625 3.7656326l-27.28125 0zm-0.796875 -36.234383q-3.75 0 -3.75 -3.765625q0 -3.765625 3.75 -3.765625l27.28125 0q3.765625 0 3.765625 3.765625q0 3.765625 -3.765625 3.765625l-27.28125 0zm61.20932 36.546883q-6.640625 0 -11.812485 -2.8281326q-5.15625 -2.84375 -8.078125 -7.84375q-2.921875 -5.0 -2.921875 -11.484375q0 -6.5625 2.765625 -11.5625q2.765625 -5.0 7.640625 -7.828125q4.8749847 -2.84375 11.20311 -2.84375q6.2343903 0 10.718765 2.765625q4.484375 2.75 6.84375 7.59375q2.359375 4.84375 2.359375 11.15625q0 1.515625 -1.046875 2.515625q-1.03125 1.0 -2.640625 1.0l-32.234375 0l0 -6.390625l32.0 0l-3.28125 2.234375q-0.078125 -4.0 -1.609375 -7.15625q-1.515625 -3.15625 -4.3125 -5.0q-2.7968903 -1.84375 -6.7968903 -1.84375q-4.5625 0 -7.8125 2.0q-3.2343597 2.0 -4.9218597 5.484375q-1.671875 3.484375 -1.671875 7.875q0 4.40625 2.0 7.84375q2.0 3.4375 5.5156097 5.4375q3.53125 2.0 8.09375 2.0q2.46875 0 5.0625153 -0.921875q2.609375 -0.921875 4.21875 -2.109375q1.1875 -0.890625 2.59375 -0.921875q1.40625 -0.046875 2.4375 0.828125q1.359375 1.203125 1.4375 2.65625q0.078125 1.4375 -1.28125 2.46875q-2.71875 2.15625 -6.765625 3.515625q-4.0312653 1.3593826 -7.7031403 1.3593826zm66.0706 -0.234375q-1.75 0 -2.921875 -1.1562576q-1.15625 -1.15625 -1.15625 -2.921875l0 -19.6875q0 -4.546875 -1.6875 -7.421875q-1.671875 -2.890625 -4.515625 -4.28125q-2.828125 -1.40625 -6.515625 -1.40625q-3.359375 0 -6.078125 1.359375q-2.71875 1.359375 -4.328125 3.640625q-1.59375 2.28125 -1.59375 5.234375l-5.046875 0q0 -5.03125 2.4375 -8.984375q2.453125 -3.96875 6.6875 -6.28125q4.25 -2.328125 9.515625 -2.328125q5.53125 0 9.890625 2.359375q4.359375 2.359375 6.875 6.921875q2.515625 4.5625 2.515625 11.1875l0 19.6875q0 1.765625 -1.15625 2.921875q-1.15625 1.1562576 -2.921875 1.1562576zm-32.875 0q-1.765625 0 -2.921875 -1.1562576q-1.15625 -1.15625 -1.15625 -2.921875l0 -35.6875q0 -1.828125 1.15625 -2.953125q1.15625 -1.125 2.921875 -1.125q1.84375 0 2.953125 1.125q1.125 1.125 1.125 2.953125l0 35.6875q0 1.765625 -1.125 2.921875q-1.109375 1.1562576 -2.953125 1.1562576zm68.71619 0.234375q-5.84375 0 -10.484375 -2.9062576q-4.640625 -2.921875 -7.328125 -7.921875q-2.671875 -5.0 -2.671875 -11.328125q0 -6.3125 2.921875 -11.34375q2.921875 -5.046875 7.921875 -7.96875q5.0 -2.921875 11.25 -2.921875q6.234375 0 11.1875 2.921875q4.96875 2.921875 7.890625 7.96875q2.921875 5.03125 2.921875 11.34375l-3.125 0q0 6.328125 -2.6875 11.328125q-2.671875 5.0 -7.3125 7.921875q-4.640625 2.9062576 -10.484375 2.9062576zm1.609375 -7.1875076q4.078125 0 7.265625 -1.953125q3.203125 -1.96875 5.046875 -5.359375q1.84375 -3.40625 1.84375 -7.65625q0 -4.3125 -1.84375 -7.703125q-1.84375 -3.40625 -5.046875 -5.359375q-3.1875 -1.96875 -7.265625 -1.96875q-4.0 0 -7.25 1.96875q-3.234375 1.953125 -5.125 5.359375q-1.875 3.390625 -1.875 7.703125q0 4.25 1.875 7.65625q1.890625 3.390625 5.125 5.359375q3.25 1.953125 7.25 1.953125zm17.90625 6.9531326q-1.75 0 -2.921875 -1.1562576q-1.15625 -1.15625 -1.15625 -2.921875l0 -12.234375l1.53125 -8.484375l6.640625 2.875l0 17.84375q0 1.765625 -1.171875 2.921875q-1.15625 1.1562576 -2.921875 1.1562576z" fill-rule="nonzero"/></g></svg>