<svg version="1.1" viewBox="0.0 0.0 50.0 80.0" fill="none" stroke="none" stroke-linecap="square" stroke-miterlimit="10" xmlns:xlink="http://www.w3.org/1999/xlink" xmlns="http://www.w3.org/2000/svg"><clipPath id="p.0"><path d="m0 0l50.0 0l0 80.0l-50.0 0l0 -80.0z" clip-rule="nonzero"/></clipPath><g clip-path="url(#p.0)"><path fill="#000000" fill-opacity="0.0" d="m0 0l50.0 0l0 80.0l-50.0 0z" fill-rule="evenodd"/><defs><linearGradient id="p.1" gradientUnits="userSpaceOnUse" gradientTransform="matrix(2.495087624920604 -4.9172960904038625 4.9172960904038625 2.495087624920604 0.0 0.0)" spreadMethod="pad" x1="-3.272045711355591" y1="10.230730362978163" x2="0.20505203281682455" y2="6.753721286462514"><stop offset="0.0" stop-color="#03dac5"/><stop offset="0.99999994" stop-color="#134f5c"/><stop offset="1.0" stop-color="#737373"/></linearGradient></defs><path fill="url(#p.1)" d="m20.708124 41.489265l0 0c-4.7214003 -2.395687 -6.606762 -8.165226 -4.211075 -12.886627q1.9560127 -3.854889 4.751093 -7.284027q4.2806435 1.1169415 8.135534 3.0729542l0 0c4.7213993 2.395687 6.60676 8.165228 4.211073 12.886625l0 0c-2.395687 4.721401 -8.165226 6.606762 -12.886625 4.211075z" fill-rule="evenodd"/><defs><linearGradient id="p.2" gradientUnits="userSpaceOnUse" gradientTransform="matrix(4.845738371253411 -2.7974240292805446 2.7974240292805446 4.845738371253411 0.0 0.0)" spreadMethod="pad" x1="0.9330520550776041" y1="10.762958508426655" x2="4.35955026508462" y2="7.336547794653951"><stop offset="0.0" stop-color="#03dac5"/><stop offset="0.99999994" stop-color="#134f5c"/><stop offset="1.0" stop-color="#737373"/></linearGradient></defs><path fill="url(#p.2)" d="m16.743 37.73314l0 0c-2.6468935 -4.5849876 -1.075758 -10.447582 3.5092278 -13.094475q3.743513 -2.1611137 7.9574223 -3.5074005q2.9759388 3.2731152 5.1370525 7.0166283l0 0c2.6468925 4.5849876 1.0757599 10.447582 -3.5092278 13.094475l0 0c-4.5849857 2.6468925 -10.447582 1.0757599 -13.094475 -3.5092278z" fill-rule="evenodd"/><defs><linearGradient id="p.3" gradientUnits="userSpaceOnUse" gradientTransform="matrix(-5.0798149436600335 1.6599748788594084 -1.6599748788594084 -5.0798149436600335 0.0 0.0)" spreadMethod="pad" x1="0.5783129994244168" y1="-6.372782008137994" x2="4.170330456460358" y2="-9.964707738185991"><stop offset="0.0" stop-color="#03dac5"/><stop offset="0.99999994" stop-color="#134f5c"/><stop offset="1.0" stop-color="#737373"/></linearGradient></defs><path fill="url(#p.3)" d="m22.72656 48.597874l0 0c1.6465225 5.0386467 -1.1033382 10.458046 -6.141983 12.1045685q-4.1139135 1.3443375 -8.52044 1.7932281q-2.2397885 -3.8213005 -3.5841274 -7.935211l0 0c-1.6465218 -5.0386467 1.1033382 -10.458046 6.141984 -12.1045685l0 0c5.0386467 -1.6465225 10.458046 1.1033401 12.104567 6.141983z" fill-rule="evenodd"/><defs><linearGradient id="p.4" gradientUnits="userSpaceOnUse" gradientTransform="matrix(-5.120617492567804 -1.372289858583865 1.372289858583865 -5.120617492567804 0.0 0.0)" spreadMethod="pad" x1="-4.9973546803708" y1="-5.112905087051457" x2="-1.3764854562412516" y2="-8.73368256805507"><stop offset="0.0" stop-color="#03dac5"/><stop offset="0.99999994" stop-color="#134f5c"/><stop offset="1.0" stop-color="#737373"/></linearGradient></defs><path fill="url(#p.4)" d="m22.874525 54.064247l0 0c-1.3721027 5.119915 -6.63492 8.158119 -11.754835 6.7860146q-4.1802664 -1.1202812 -8.116688 -3.1504555q0.21039009 -4.4241104 1.3306723 -8.604378l0 0c1.3721018 -5.119915 6.6349206 -8.158115 11.754835 -6.7860146l0 0c5.119915 1.3721008 8.158117 6.634918 6.7860165 11.754833z" fill-rule="evenodd"/><defs><linearGradient id="p.5" gradientUnits="userSpaceOnUse" gradientTransform="matrix(1.450847079742611 5.10818832571736 -5.10818832571736 1.450847079742611 0.0 0.0)" spreadMethod="pad" x1="11.196420408322393" y1="-0.24429455889213864" x2="14.808500950538726" y2="-3.8562832254769743"><stop offset="0.0" stop-color="#03dac5"/><stop offset="0.99999994" stop-color="#134f5c"/><stop offset="1.0" stop-color="#737373"/></linearGradient></defs><path fill="url(#p.5)" d="m33.322964 42.373238l0 0c5.095089 -1.4471283 10.398605 1.5101318 11.84573 6.605221q1.1815376 4.16 1.4575958 8.577175q-3.9028206 2.087017 -8.062817 3.2685585l0 0c-5.095093 1.4471245 -10.398605 -1.5101318 -11.845734 -6.6052246l0 0c-1.4471264 -5.095089 1.5101318 -10.398605 6.6052246 -11.84573z" fill-rule="evenodd"/><defs><linearGradient id="p.6" gradientUnits="userSpaceOnUse" gradientTransform="matrix(-1.5797012244539606 5.08972132149045 -5.08972132149045 -1.5797012244539606 0.0 0.0)" spreadMethod="pad" x1="7.247602105495704" y1="-5.712542953222658" x2="10.846624738288343" y2="-9.31147324138897"><stop offset="0.0" stop-color="#03dac5"/><stop offset="0.99999994" stop-color="#134f5c"/><stop offset="1.0" stop-color="#737373"/></linearGradient></defs><path fill="url(#p.6)" d="m38.78657 42.439034l0 0c5.058319 1.5699539 7.886196 6.9432297 6.316242 12.001549q-1.281826 4.1299706 -3.462593 7.980938q-4.4089813 -0.38287735 -8.538956 -1.6646996l0 0c-5.058317 -1.5699539 -7.8861923 -6.9432297 -6.3162384 -12.001549l0 0c1.5699539 -5.0583153 6.9432297 -7.8861923 12.001545 -6.3162384z" fill-rule="evenodd"/></g></svg>