<svg version="1.1" viewBox="0.0 0.0 200.0 80.0" fill="none" stroke="none" stroke-linecap="square" stroke-miterlimit="10" xmlns:xlink="http://www.w3.org/1999/xlink" xmlns="http://www.w3.org/2000/svg"><clipPath id="p.0"><path d="m0 0l200.0 0l0 80.0l-200.0 0l0 -80.0z" clip-rule="nonzero"/></clipPath><g clip-path="url(#p.0)"><path fill="#000000" fill-opacity="0.0" d="m0 0l200.0 0l0 80.0l-200.0 0z" fill-rule="evenodd"/><defs><linearGradient id="p.1" gradientUnits="userSpaceOnUse" gradientTransform="matrix(2.4950875102597108 -4.917295864431214 4.917295864431214 2.4950875102597108 0.0 0.0)" spreadMethod="pad" x1="-2.9677089325615955" y1="10.830514683512357" x2="0.509388797085777" y2="7.353505912048962"><stop offset="0.0" stop-color="#03dac5"/><stop offset="0.99999994" stop-color="#134f5c"/><stop offset="1.0" stop-color="#737373"/></linearGradient></defs><path fill="url(#p.1)" d="m24.416784 41.489265l0 0c-4.7213993 -2.395687 -6.60676 -8.165226 -4.211073 -12.886627q1.9560108 -3.854889 4.751093 -7.284027q4.2806435 1.1169415 8.135534 3.0729542l0 0c4.7213974 2.395687 6.606762 8.165228 4.211075 12.886625l0 0c-2.395691 4.721401 -8.165228 6.606762 -12.886629 4.211075z" fill-rule="evenodd"/><defs><linearGradient id="p.2" gradientUnits="userSpaceOnUse" gradientTransform="matrix(4.845738654684995 -2.7974241929043853 2.7974241929043853 4.845738654684995 0.0 0.0)" spreadMethod="pad" x1="1.5070878471373856" y1="11.094346869343585" x2="4.9335862002970385" y2="7.667935897889265"><stop offset="0.0" stop-color="#03dac5"/><stop offset="0.99999994" stop-color="#134f5c"/><stop offset="1.0" stop-color="#737373"/></linearGradient></defs><path fill="url(#p.2)" d="m20.45166 37.73314l0 0c-2.6468925 -4.5849876 -1.075758 -10.447582 3.5092297 -13.094475q3.7435112 -2.1611137 7.9574203 -3.5074005q2.9759426 3.2731152 5.1370564 7.0166283l0 0c2.6468925 4.5849876 1.0757561 10.447582 -3.5092316 13.094475l0 0c-4.584984 2.6468925 -10.44758 1.0757599 -13.094475 -3.5092278z" fill-rule="evenodd"/><defs><linearGradient id="p.3" gradientUnits="userSpaceOnUse" gradientTransform="matrix(-5.079814646911921 1.6599747818884723 -1.6599747818884723 -5.079814646911921 0.0 0.0)" spreadMethod="pad" x1="-0.08132599159575324" y1="-6.588338656400957" x2="3.5106913155617825" y2="-10.180264116660622"><stop offset="0.0" stop-color="#03dac5"/><stop offset="0.99999994" stop-color="#134f5c"/><stop offset="1.0" stop-color="#737373"/></linearGradient></defs><path fill="url(#p.3)" d="m26.435223 48.597874l0 0c1.6465225 5.0386467 -1.1033382 10.458046 -6.141985 12.1045685q-4.1139126 1.3443375 -8.520439 1.7932281q-2.239788 -3.8213005 -3.5841274 -7.935211l0 0c-1.6465216 -5.0386467 1.1033382 -10.458046 6.141985 -12.1045685l0 0c5.038645 -1.6465225 10.458044 1.1033401 12.104567 6.141983z" fill-rule="evenodd"/><defs><linearGradient id="p.4" gradientUnits="userSpaceOnUse" gradientTransform="matrix(-5.120617449833659 -1.3722898471526142 1.3722898471526142 -5.120617449833659 0.0 0.0)" spreadMethod="pad" x1="-5.673084551655679" y1="-4.931814592742241" x2="-2.052214934690838" y2="-8.552591620464586"><stop offset="0.0" stop-color="#03dac5"/><stop offset="0.99999994" stop-color="#134f5c"/><stop offset="1.0" stop-color="#737373"/></linearGradient></defs><path fill="url(#p.4)" d="m26.583185 54.064247l0 0c-1.3721008 5.119915 -6.63492 8.158119 -11.754834 6.7860146q-4.1802664 -1.1202812 -8.116688 -3.1504555q0.21039009 -4.4241104 1.3306723 -8.604378l0 0c1.3721018 -5.119915 6.63492 -8.158115 11.754835 -6.7860146l0 0c5.119913 1.3721008 8.158117 6.634918 6.7860146 11.754833z" fill-rule="evenodd"/><defs><linearGradient id="p.5" gradientUnits="userSpaceOnUse" gradientTransform="matrix(1.450847072169297 5.108188299052997 -5.108188299052997 1.450847072169297 0.0 0.0)" spreadMethod="pad" x1="11.387235550446547" y1="-0.9161218376786492" x2="14.999316111517672" y2="-4.528110447698629"><stop offset="0.0" stop-color="#03dac5"/><stop offset="0.99999994" stop-color="#134f5c"/><stop offset="1.0" stop-color="#737373"/></linearGradient></defs><path fill="url(#p.5)" d="m37.031624 42.373238l0 0c5.095089 -1.4471283 10.398605 1.5101318 11.84573 6.605221q1.1815414 4.16 1.4575996 8.577175q-3.9028206 2.087017 -8.06282 3.2685585l0 0c-5.095089 1.4471245 -10.398605 -1.5101318 -11.845732 -6.6052246l0 0c-1.4471264 -5.095089 1.5101318 -10.398605 6.6052227 -11.84573z" fill-rule="evenodd"/><defs><linearGradient id="p.6" gradientUnits="userSpaceOnUse" gradientTransform="matrix(-1.5797012244539606 5.08972132149045 -5.08972132149045 -1.5797012244539606 0.0 0.0)" spreadMethod="pad" x1="7.041319601053388" y1="-6.377176086590108" x2="10.640342233846027" y2="-9.97610637475642"><stop offset="0.0" stop-color="#03dac5"/><stop offset="0.99999994" stop-color="#134f5c"/><stop offset="1.0" stop-color="#737373"/></linearGradient></defs><path fill="url(#p.6)" d="m42.495235 42.439034l0 0c5.0583153 1.5699539 7.8861923 6.9432297 6.3162384 12.001549q-1.281826 4.1299706 -3.462593 7.980938q-4.4089813 -0.38287735 -8.538956 -1.6646996l0 0c-5.0583153 -1.5699539 -7.8861923 -6.9432297 -6.3162384 -12.001549l0 0c1.5699539 -5.0583153 6.9432297 -7.8861923 12.001549 -6.3162384z" fill-rule="evenodd"/><path fill="#000000" fill-opacity="0.0" d="m40.96334 11.671916l158.51968 0l0 54.677166l-158.51968 0z" fill-rule="evenodd"/><path fill="#000000" d="m66.111755 54.642372q-3.109375 0 -5.59375 -1.546875q-2.46875 -1.5625 -3.90625 -4.234375q-1.421875 -2.671875 -1.421875 -6.03125q0 -3.375 1.5625 -6.0625q1.5625 -2.6875 4.21875 -4.234375q2.671875 -1.5625 6.0 -1.5625q3.328125 0 5.96875 1.5625q2.640625 1.546875 4.1875 4.234375q1.5625 2.6875 1.5625 6.0625l-1.65625 0q0 3.359375 -1.4375 6.03125q-1.421875 2.671875 -3.90625 4.234375q-2.46875 1.546875 -5.578125 1.546875zm0.859375 -3.84375q2.171875 0 3.875 -1.046875q1.703125 -1.046875 2.6875 -2.859375q0.984375 -1.8125 0.984375 -4.0625q0 -2.3125 -0.984375 -4.125q-0.984375 -1.8125 -2.6875 -2.859375q-1.703125 -1.046875 -3.875 -1.046875q-2.140625 0 -3.875 1.046875q-1.71875 1.046875 -2.71875 2.859375q-1.0 1.8125 -1.0 4.125q0 2.25 1.0 4.0625q1.0 1.8125 2.71875 2.859375q1.734375 1.046875 3.875 1.046875zm9.546875 3.71875q-0.9375 0 -1.5625 -0.609375q-0.609375 -0.625 -0.609375 -1.5625l0 -6.53125l0.8125 -4.53125l3.53125 1.546875l0 9.515625q0 0.9375 -0.625 1.5625q-0.609375 0.609375 -1.546875 0.609375z" fill-rule="nonzero"/><path fill="#02a091" d="m87.40468 53.657997l-2.90625 -2.5625l14.5 -19.140625l2.859375 2.546875l-14.453125 19.15625zm-1.28125 0.8125q-2.015625 0 -2.015625 -2.0q0 -2.015625 2.015625 -2.015625l14.546875 0q2.0 0 2.0 2.015625q0 2.0 -2.0 2.0l-14.546875 0zm-0.4375 -19.328125q-2.0 0 -2.0 -2.0q0 -2.0 2.0 -2.0l14.546875 0q2.015625 0 2.015625 2.0q0 2.0 -2.015625 2.0l-14.546875 0zm32.634125 19.5q-3.53125 0 -6.28125 -1.515625q-2.75 -1.515625 -4.3125 -4.171875q-1.5625 -2.671875 -1.5625 -6.125q0 -3.5 1.46875 -6.15625q1.484375 -2.671875 4.078125 -4.1875q2.609375 -1.515625 5.96875 -1.515625q3.328125 0 5.71875 1.46875q2.390625 1.46875 3.640625 4.046875q1.265625 2.578125 1.265625 5.953125q0 0.8125 -0.5625 1.34375q-0.546875 0.53125 -1.390625 0.53125l-17.203125 0l0 -3.40625l17.0625 0l-1.75 1.1875q-0.03125 -2.125 -0.84375 -3.8125q-0.8125 -1.6875 -2.3125 -2.65625q-1.484375 -0.984375 -3.625 -0.984375q-2.421875 0 -4.15625 1.0625q-1.71875 1.0625 -2.625 2.921875q-0.890625 1.859375 -0.890625 4.203125q0 2.34375 1.0625 4.1875q1.0625 1.828125 2.9375 2.890625q1.890625 1.0625 4.3125 1.0625q1.328125 0 2.703125 -0.484375q1.390625 -0.5 2.25 -1.140625q0.640625 -0.46875 1.375 -0.484375q0.75 -0.015625 1.3125 0.453125q0.71875 0.640625 0.765625 1.40625q0.046875 0.765625 -0.6875 1.3125q-1.4375 1.15625 -3.59375 1.890625q-2.15625 0.71875 -4.125 0.71875zm35.239487 -0.125q-0.9375 0 -1.5625 -0.609375q-0.609375 -0.625 -0.609375 -1.5625l0 -10.5q0 -2.4375 -0.90625 -3.96875q-0.890625 -1.53125 -2.40625 -2.28125q-1.515625 -0.75 -3.46875 -0.75q-1.796875 0 -3.25 0.734375q-1.453125 0.71875 -2.3125 1.9375q-0.84375 1.21875 -0.84375 2.796875l-2.6875 0q0 -2.6875 1.296875 -4.796875q1.3125 -2.125 3.5625 -3.359375q2.265625 -1.234375 5.078125 -1.234375q2.953125 0 5.265625 1.265625q2.328125 1.25 3.671875 3.6875q1.34375 2.421875 1.34375 5.96875l0 10.5q0 0.9375 -0.625 1.5625q-0.609375 0.609375 -1.546875 0.609375zm-17.53125 0q-0.9375 0 -1.5625 -0.609375q-0.609375 -0.625 -0.609375 -1.5625l0 -19.03125q0 -0.984375 0.609375 -1.578125q0.625 -0.59375 1.5625 -0.59375q0.984375 0 1.578125 0.59375q0.59375 0.59375 0.59375 1.578125l0 19.03125q0 0.9375 -0.59375 1.5625q-0.59375 0.609375 -1.578125 0.609375z" fill-rule="nonzero"/><path fill="#000000" d="m172.66669 54.642372q-3.109375 0 -5.59375 -1.546875q-2.46875 -1.5625 -3.90625 -4.234375q-1.421875 -2.671875 -1.421875 -6.03125q0 -3.375 1.5625 -6.0625q1.5625 -2.6875 4.21875 -4.234375q2.671875 -1.5625 6.0 -1.5625q3.328125 0 5.96875 1.5625q2.640625 1.546875 4.1875 4.234375q1.5625 2.6875 1.5625 6.0625l-1.65625 0q0 3.359375 -1.4375 6.03125q-1.421875 2.671875 -3.90625 4.234375q-2.46875 1.546875 -5.578125 1.546875zm0.859375 -3.84375q2.171875 0 3.875 -1.046875q1.703125 -1.046875 2.6875 -2.859375q0.984375 -1.8125 0.984375 -4.0625q0 -2.3125 -0.984375 -4.125q-0.984375 -1.8125 -2.6875 -2.859375q-1.703125 -1.046875 -3.875 -1.046875q-2.140625 0 -3.875 1.046875q-1.71875 1.046875 -2.71875 2.859375q-1.0 1.8125 -1.0 4.125q0 2.25 1.0 4.0625q1.0 1.8125 2.71875 2.859375q1.734375 1.046875 3.875 1.046875zm9.546875 3.71875q-0.9375 0 -1.5625 -0.609375q-0.609375 -0.625 -0.609375 -1.5625l0 -6.53125l0.8125 -4.53125l3.53125 1.546875l0 9.515625q0 0.9375 -0.625 1.5625q-0.609375 0.609375 -1.546875 0.609375z" fill-rule="nonzero"/></g></svg>