<svg version="1.1" viewBox="0.0 0.0 100.0 100.0" fill="none" stroke="none" stroke-linecap="square" stroke-miterlimit="10" xmlns:xlink="http://www.w3.org/1999/xlink" xmlns="http://www.w3.org/2000/svg"><clipPath id="p.0"><path d="m0 0l100.0 0l0 100.0l-100.0 0l0 -100.0z" clip-rule="nonzero"/></clipPath><g clip-path="url(#p.0)"><path fill="#000000" fill-opacity="0.0" d="m0 0l100.0 0l0 100.0l-100.0 0z" fill-rule="evenodd"/><path fill="#ffffff" d="m41.792564 51.020195l0 0c-8.969807 -4.5513725 -12.551653 -15.512455 -8.000278 -24.482262q3.7160683 -7.323595 9.026218 -13.838337q8.132446 2.1219883 15.456043 5.8380566l0 0c8.969807 4.5513744 12.551655 15.512457 8.000278 24.482264l0 0c-4.5513725 8.969803 -15.512455 12.551651 -24.482262 8.000278z" fill-rule="evenodd"/><path fill="#ffffff" d="m34.259544 43.884235l0 0c-5.028616 -8.710648 -2.0437431 -19.84852 6.6669006 -24.877138q7.1119995 -4.1057262 15.1176605 -6.6634283q5.6537514 6.2183294 9.759476 13.330327l0 0c5.028618 8.710644 2.043747 19.848518 -6.666897 24.877136l0 0c-8.710648 5.028618 -19.848522 2.043747 -24.87714 -6.666897z" fill-rule="evenodd"/><path fill="#ffffff" d="m45.66507 64.50478l0 0c3.1246376 9.561935 -2.0938263 19.846443 -11.655766 22.971077q-7.8070564 2.551178 -16.16941 3.4030457q-4.25049 -7.2517548 -6.801669 -15.058807l0 0c-3.1246371 -9.561943 2.0938272 -19.846443 11.6557665 -22.97108l0 0c9.561941 -3.1246376 19.846441 2.0938263 22.971079 11.655766z" fill-rule="evenodd"/><path fill="#ffffff" d="m45.94586 74.878426l0 0c-2.6038628 9.716164 -12.591221 15.481827 -22.307384 12.87796q-7.932975 -2.1259842 -15.403201 -5.9786835q0.39926147 -8.395729 2.5252438 -16.328705l0 0c2.6038637 -9.716164 12.59122 -15.481819 22.307384 -12.877956l0 0c9.716164 2.6038666 15.481823 12.591221 12.877956 22.307384z" fill-rule="evenodd"/><path fill="#ffffff" d="m65.794586 52.644505l0 0c9.674988 -2.7556953 19.752045 2.8534966 22.507736 12.528484q2.2499542 7.899353 2.7804947 16.288437q-7.409622 3.9693527 -15.308975 6.2192993l0 0c-9.67498 2.7556992 -19.75204 -2.8534927 -22.507736 -12.528481l0 0c-2.7556953 -9.674988 2.8534966 -19.75204 12.528481 -22.50774z" fill-rule="evenodd"/><path fill="#ffffff" d="m76.17163 52.761765l0 0c9.609398 2.9746513 14.987923 13.176041 12.013275 22.785439q-2.4287186 7.84581 -6.5651855 15.1629715q-8.374451 -0.7209778 -16.220253 -3.1496964l0 0c-9.609402 -2.9746552 -14.9879265 -13.176041 -12.013275 -22.785439l0 0c2.9746513 -9.609402 13.176041 -14.9879265 22.785439 -12.013275z" fill-rule="evenodd"/></g></svg>