<svg version="1.1" viewBox="0.0 0.0 150.0 80.0" fill="none" stroke="none" stroke-linecap="square" stroke-miterlimit="10" xmlns:xlink="http://www.w3.org/1999/xlink" xmlns="http://www.w3.org/2000/svg"><clipPath id="p.0"><path d="m0 0l150.0 0l0 80.0l-150.0 0l0 -80.0z" clip-rule="nonzero"/></clipPath><g clip-path="url(#p.0)"><path fill="#000000" fill-opacity="0.0" d="m0 0l150.0 0l0 80.0l-150.0 0z" fill-rule="evenodd"/><path fill="#000000" fill-opacity="0.0" d="m-4.2597547 11.671916l158.51968 0l0 54.677166l-158.51968 0z" fill-rule="evenodd"/><path fill="#000000" d="m20.88866 54.642372q-3.109375 0 -5.59375 -1.546875q-2.46875 -1.5625 -3.90625 -4.234375q-1.421875 -2.671875 -1.421875 -6.03125q0 -3.375 1.5625 -6.0625q1.5625 -2.6875 4.21875 -4.234375q2.671875 -1.5625 6.0 -1.5625q3.328125 0 5.96875 1.5625q2.640625 1.546875 4.1875 4.234375q1.5625 2.6875 1.5625 6.0625l-1.65625 0q0 3.359375 -1.4375 6.03125q-1.421875 2.671875 -3.90625 4.234375q-2.46875 1.546875 -5.578125 1.546875zm0.859375 -3.84375q2.171875 0 3.875 -1.046875q1.703125 -1.046875 2.6875 -2.859375q0.984375 -1.8125 0.984375 -4.0625q0 -2.3125 -0.984375 -4.125q-0.984375 -1.8125 -2.6875 -2.859375q-1.703125 -1.046875 -3.875 -1.046875q-2.140625 0 -3.875 1.046875q-1.71875 1.046875 -2.71875 2.859375q-1.0 1.8125 -1.0 4.125q0 2.25 1.0 4.0625q1.0 1.8125 2.71875 2.859375q1.734375 1.046875 3.875 1.046875zm9.546875 3.71875q-0.9375 0 -1.5625 -0.609375q-0.609375 -0.625 -0.609375 -1.5625l0 -6.53125l0.8125 -4.53125l3.53125 1.546875l0 9.515625q0 0.9375 -0.625 1.5625q-0.609375 0.609375 -1.546875 0.609375z" fill-rule="nonzero"/><path fill="#02a091" d="m42.181583 53.657997l-2.90625 -2.5625l14.5 -19.140625l2.859375 2.546875l-14.453125 19.15625zm-1.28125 0.8125q-2.015625 0 -2.015625 -2.0q0 -2.015625 2.015625 -2.015625l14.546875 0q2.0 0 2.0 2.015625q0 2.0 -2.0 2.0l-14.546875 0zm-0.4375 -19.328125q-2.0 0 -2.0 -2.0q0 -2.0 2.0 -2.0l14.546875 0q2.015625 0 2.015625 2.0q0 2.0 -2.015625 2.0l-14.546875 0zm32.63412 19.5q-3.53125 0 -6.28125 -1.515625q-2.75 -1.515625 -4.312496 -4.171875q-1.5625 -2.671875 -1.5625 -6.125q0 -3.5 1.46875 -6.15625q1.484375 -2.671875 4.078121 -4.1875q2.609375 -1.515625 5.96875 -1.515625q3.328125 0 5.71875 1.46875q2.390625 1.46875 3.640625 4.046875q1.265625 2.578125 1.265625 5.953125q0 0.8125 -0.5625 1.34375q-0.546875 0.53125 -1.390625 0.53125l-17.203121 0l0 -3.40625l17.062496 0l-1.75 1.1875q-0.03125 -2.125 -0.84375 -3.8125q-0.8125 -1.6875 -2.3125 -2.65625q-1.484375 -0.984375 -3.625 -0.984375q-2.421875 0 -4.15625 1.0625q-1.71875 1.0625 -2.625 2.921875q-0.890625 1.859375 -0.890625 4.203125q0 2.34375 1.0625 4.1875q1.0625 1.828125 2.9375 2.890625q1.890625 1.0625 4.3125 1.0625q1.328125 0 2.703125 -0.484375q1.390625 -0.5 2.25 -1.140625q0.640625 -0.46875 1.375 -0.484375q0.75 -0.015625 1.3125 0.453125q0.71875 0.640625 0.765625 1.40625q0.046875 0.765625 -0.6875 1.3125q-1.4375 1.15625 -3.59375 1.890625q-2.15625 0.71875 -4.125 0.71875zm35.239487 -0.125q-0.9375 0 -1.5625 -0.609375q-0.609375 -0.625 -0.609375 -1.5625l0 -10.5q0 -2.4375 -0.90625 -3.96875q-0.890625 -1.53125 -2.40625 -2.28125q-1.515625 -0.75 -3.46875 -0.75q-1.796875 0 -3.25 0.734375q-1.453125 0.71875 -2.3125 1.9375q-0.84375 1.21875 -0.84375 2.796875l-2.6875 0q0 -2.6875 1.296875 -4.796875q1.3125 -2.125 3.5625 -3.359375q2.265625 -1.234375 5.078125 -1.234375q2.953125 0 5.265625 1.265625q2.328125 1.25 3.671875 3.6875q1.34375 2.421875 1.34375 5.96875l0 10.5q0 0.9375 -0.625 1.5625q-0.609375 0.609375 -1.546875 0.609375zm-17.53125 0q-0.9375 0 -1.5625 -0.609375q-0.609375 -0.625 -0.609375 -1.5625l0 -19.03125q0 -0.984375 0.609375 -1.578125q0.625 -0.59375 1.5625 -0.59375q0.984375 0 1.578125 0.59375q0.59375 0.59375 0.59375 1.578125l0 19.03125q0 0.9375 -0.59375 1.5625q-0.59375 0.609375 -1.578125 0.609375z" fill-rule="nonzero"/><path fill="#000000" d="m127.44358 54.642372q-3.109375 0 -5.5937424 -1.546875q-2.46875 -1.5625 -3.90625 -4.234375q-1.421875 -2.671875 -1.421875 -6.03125q0 -3.375 1.5625 -6.0625q1.5625 -2.6875 4.21875 -4.234375q2.6718674 -1.5625 6.0 -1.5625q3.328125 0 5.96875 1.5625q2.640625 1.546875 4.1875 4.234375q1.5625 2.6875 1.5625 6.0625l-1.65625 0q0 3.359375 -1.4375 6.03125q-1.421875 2.671875 -3.90625 4.234375q-2.46875 1.546875 -5.5781326 1.546875zm0.8593826 -3.84375q2.171875 0 3.875 -1.046875q1.703125 -1.046875 2.6875 -2.859375q0.984375 -1.8125 0.984375 -4.0625q0 -2.3125 -0.984375 -4.125q-0.984375 -1.8125 -2.6875 -2.859375q-1.703125 -1.046875 -3.875 -1.046875q-2.1406326 0 -3.8750076 1.046875q-1.7187424 1.046875 -2.7187424 2.859375q-1.0 1.8125 -1.0 4.125q0 2.25 1.0 4.0625q1.0 1.8125 2.7187424 2.859375q1.734375 1.046875 3.8750076 1.046875zm9.546875 3.71875q-0.9375 0 -1.5625 -0.609375q-0.609375 -0.625 -0.609375 -1.5625l0 -6.53125l0.8125 -4.53125l3.53125 1.546875l0 9.515625q0 0.9375 -0.625 1.5625q-0.609375 0.609375 -1.546875 0.609375z" fill-rule="nonzero"/></g></svg>