<svg version="1.1" viewBox="0.0 0.0 100.0 100.0" fill="none" stroke="none" stroke-linecap="square" stroke-miterlimit="10" xmlns:xlink="http://www.w3.org/1999/xlink" xmlns="http://www.w3.org/2000/svg"><clipPath id="p.0"><path d="m0 0l100.0 0l0 100.0l-100.0 0l0 -100.0z" clip-rule="nonzero"/></clipPath><g clip-path="url(#p.0)"><path fill="#000000" fill-opacity="0.0" d="m0 0l100.0 0l0 100.0l-100.0 0z" fill-rule="evenodd"/><path fill="#02a091" d="m41.842533 41.719196l0 0c-9.519344 -4.900387 -13.26375 -16.589891 -8.363361 -26.109238q4.00103 -7.7722793 9.693802 -14.673679q8.643158 2.3092866 16.415436 6.310316l0 0c9.519348 4.9003887 13.263756 16.589893 8.363365 26.109241l0 0c-4.9003906 9.519344 -16.589893 13.263752 -26.109241 8.363361z" fill-rule="evenodd"/><path fill="#02a091" d="m33.866886 34.07788l0 0c-5.2970963 -9.303902 -2.0489368 -21.140347 7.254963 -26.437443q7.5963745 -4.3249288 16.134129 -6.9964027q5.978386 6.6549945 10.30331 14.2513685l0 0c5.2970963 9.303902 2.048935 21.140347 -7.254963 26.437439l0 0c-9.303902 5.2970963 -21.140347 2.048935 -26.437439 -7.254963z" fill-rule="evenodd"/><path fill="#02a091" d="m47.099316 61.928143l0 0c0.5779495 10.692127 -7.621208 19.828335 -18.313334 20.406284q-8.729822 0.47188568 -17.562355 -0.956398q-2.3720474 -8.627113 -2.8439302 -17.356934l0 0c-0.5779524 -10.692127 7.6212063 -19.828331 18.313334 -20.406284l0 0c10.692125 -0.57795334 19.828333 7.6212044 20.406286 18.313332z" fill-rule="evenodd"/><path fill="#02a091" d="m44.53006 72.67042l0 0c-5.354496 9.273102 -17.212513 12.449768 -26.48562 7.0952682q-7.571231 -4.3717957 -14.190881 -10.391579q2.723814 -8.522808 7.0956106 -16.09404l0 0c5.354496 -9.273109 17.212513 -12.449768 26.485619 -7.095272l0 0c9.273106 5.354496 12.449768 17.212513 7.095272 26.485622z" fill-rule="evenodd"/><path fill="#02a091" d="m63.449375 46.337242l0 0c9.188511 -5.4987946 21.094929 -2.5076904 26.593723 6.6808205q4.489609 7.502163 7.3462753 15.981548q-6.524933 6.122566 -14.0271 10.612175l0 0c-9.188507 5.4987946 -21.094925 2.5076904 -26.59372 -6.6808167l0 0c-5.4987984 -9.188515 -2.5076942 -21.094929 6.6808205 -26.593727z" fill-rule="evenodd"/><path fill="#02a091" d="m74.15036 43.599754l0 0c10.700264 0.41067123 19.041634 9.417866 18.630959 20.11813q-0.33529663 8.736462 -2.5722122 17.399944q-8.809448 1.5663147 -17.545914 1.2310104l0 0c-10.700264 -0.41066742 -19.04163 -9.417862 -18.630959 -20.118126l0 0c0.41067123 -10.700264 9.417866 -19.04163 20.118126 -18.630959z" fill-rule="evenodd"/></g></svg>