<?xml version="1.0" encoding="UTF-8" standalone="no"?>
<svg
   xmlns:dc="http://purl.org/dc/elements/1.1/"
   xmlns:cc="http://creativecommons.org/ns#"
   xmlns:rdf="http://www.w3.org/1999/02/22-rdf-syntax-ns#"
   xmlns:svg="http://www.w3.org/2000/svg"
   xmlns="http://www.w3.org/2000/svg"
   xmlns:sodipodi="http://sodipodi.sourceforge.net/DTD/sodipodi-0.dtd"
   xmlns:inkscape="http://www.inkscape.org/namespaces/inkscape"
   width="131.23334mm"
   height="131.23334mm"
   viewBox="0 0 131.23334 131.23334"
   version="1.1"
   id="svg8"
   inkscape:version="1.0.1 (c497b03c, 2020-09-10)"
   sodipodi:docname="drawing.svg">
  <defs
     id="defs2" />
  <sodipodi:namedview
     id="base"
     pagecolor="#ffffff"
     bordercolor="#666666"
     borderopacity="1.0"
     inkscape:pageopacity="0"
     inkscape:pageshadow="2"
     inkscape:zoom="0.35"
     inkscape:cx="348"
     inkscape:cy="519.42857"
     inkscape:document-units="mm"
     inkscape:current-layer="layer1"
     inkscape:document-rotation="0"
     showgrid="false"
     inkscape:window-width="1252"
     inkscape:window-height="809"
     inkscape:window-x="0"
     inkscape:window-y="23"
     inkscape:window-maximized="0"
     inkscape:showpageshadow="false"
     showborder="true"
     fit-margin-top="0"
     fit-margin-left="0"
     fit-margin-right="0"
     fit-margin-bottom="0"
     inkscape:pagecheckerboard="true" />
  <metadata
     id="metadata5">
    <rdf:RDF>
      <cc:Work
         rdf:about="">
        <dc:format>image/svg+xml</dc:format>
        <dc:type
           rdf:resource="http://purl.org/dc/dcmitype/StillImage" />
        <dc:title></dc:title>
      </cc:Work>
    </rdf:RDF>
  </metadata>
  <g
     inkscape:label="Layer 1"
     inkscape:groupmode="layer"
     id="layer1"
     transform="translate(-13.758333,-10.734524)">
    <path
       d="m 79.374998,141.96786 c -36.247915,0 -65.616665,-29.36875 -65.616665,-65.61667 0,-36.247916 29.36875,-65.616666 65.616665,-65.616666 36.247922,0 65.616672,29.36875 65.616672,65.616666 0,36.24792 -29.36875,65.61667 -65.616672,65.61667 z M 49.238953,80.84911 85.089998,116.70015 c 2.48709,2.48708 6.50875,2.48708 8.96938,0 l 4.49791,-4.49792 c 2.487092,-2.48708 2.487092,-6.50875 0,-8.96937 L 71.675623,76.35119 98.557288,49.469524 c 2.487092,-2.487084 2.487092,-6.50875 0,-8.969375 l -4.49791,-4.497917 c -2.48709,-2.487083 -6.50875,-2.487083 -8.96938,0 L 49.238953,71.85327 c -2.48708,2.48709 -2.48708,6.50875 0,8.99584 z"
       id="path10"
       style="fill:#ffffff;stroke-width:0.264583" />
  </g>
</svg>
